<svg width="34" height="34" viewBox="0 0 34 34" fill="none" xmlns="http://www.w3.org/2000/svg">
<path d="M22.5 4.625V10.125M11.5 4.625V10.125M6 15.625H28M15.625 21.125H17V25.25M6 10.125C6 9.39565 6.28973 8.69618 6.80546 8.18046C7.32118 7.66473 8.02065 7.375 8.75 7.375H25.25C25.9793 7.375 26.6788 7.66473 27.1945 8.18046C27.7103 8.69618 28 9.39565 28 10.125V26.625C28 27.3543 27.7103 28.0538 27.1945 28.5695C26.6788 29.0853 25.9793 29.375 25.25 29.375H8.75C8.02065 29.375 7.32118 29.0853 6.80546 28.5695C6.28973 28.0538 6 27.3543 6 26.625V10.125Z" stroke="#4B84EE" stroke-width="2.5" stroke-linecap="round" stroke-linejoin="round"/>
</svg>
