<svg width="34" height="34" viewBox="0 0 34 34" fill="none" xmlns="http://www.w3.org/2000/svg">
<path d="M19.75 4.625V10.125C19.75 10.4897 19.8949 10.8394 20.1527 11.0973C20.4106 11.3551 20.7603 11.5 21.125 11.5H26.625" stroke="#4B84EE" stroke-width="2.5" stroke-linecap="round" stroke-linejoin="round"/>
<path d="M12.875 23.875H21.125M12.875 18.375H21.125M23.875 29.375H10.125C9.39565 29.375 8.69618 29.0853 8.18046 28.5695C7.66473 28.0538 7.375 27.3543 7.375 26.625V7.375C7.375 6.64565 7.66473 5.94618 8.18046 5.43046C8.69618 4.91473 9.39565 4.625 10.125 4.625H19.75L26.625 11.5V26.625C26.625 27.3543 26.3353 28.0538 25.8195 28.5695C25.3038 29.0853 24.6043 29.375 23.875 29.375Z" stroke="#4B84EE" stroke-width="2.5" stroke-linecap="round" stroke-linejoin="round"/>
</svg>
