<svg width="34" height="34" viewBox="0 0 34 34" fill="none" xmlns="http://www.w3.org/2000/svg">
<path d="M7.47852 13.3802C7.47852 15.8355 8.45387 18.1902 10.19 19.9263C11.9262 21.6625 14.2809 22.6378 16.7362 22.6378C19.1914 22.6378 21.5461 21.6625 23.2823 19.9263C25.0184 18.1902 25.9938 15.8355 25.9938 13.3802C25.9938 10.9249 25.0184 8.5702 23.2823 6.83406C21.5461 5.09791 19.1914 4.12256 16.7362 4.12256C14.2809 4.12256 11.9262 5.09791 10.19 6.83406C8.45387 8.5702 7.47852 10.9249 7.47852 13.3802Z" stroke="#4B84EE" stroke-width="2.5" stroke-linecap="round" stroke-linejoin="round"/>
<path d="M16.7369 22.6379L21.9829 31.7258L24.4485 26.7374L30 27.0954L24.754 18.009M8.7167 18.009L3.4707 27.0969L9.0222 26.7374L11.4878 31.7242L16.7338 22.6379" stroke="#4B84EE" stroke-width="2.5" stroke-linecap="round" stroke-linejoin="round"/>
</svg>
